<?xml version="1.0" standalone="no"?><!DOCTYPE svg PUBLIC "-//W3C//DTD SVG 1.1//EN"
        "http://www.w3.org/Graphics/SVG/1.1/DTD/svg11.dtd">
<svg t="1710314875068" class="icon" viewBox="0 0 1024 1024" version="1.1" xmlns="http://www.w3.org/2000/svg" p-id="3256"
     width="64" height="64">
    <path d="M1002.646 887.394H21.336c-11.75 0-21.312-9.532-21.312-21.312s9.562-21.344 21.312-21.344h981.31c11.782 0 21.344 9.562 21.344 21.344s-9.562 21.312-21.344 21.312z"
          fill="#434A54" p-id="3257"></path>
    <path d="M1020.458 230.65c-8.718-23.936-34.218-42.624-75.84-55.544-27.876-8.64-53.438-11.796-54.5-11.922a21.24 21.24 0 0 0-9.876 1.14l-618.54 225.118-105.964-49.42a21.406 21.406 0 0 0-16.312-0.718L14.056 384.942a21.384 21.384 0 0 0-13.75 16.532 21.27 21.27 0 0 0 7.656 20.108l242.366 195.728a21.094 21.094 0 0 0 13.376 4.75c2.468 0 4.938-0.438 7.312-1.282L955.68 371.568c3.156-1.14 6-3.016 8.282-5.468 0.75-0.782 18.312-19.64 34.092-44.156 23.562-36.654 31.124-67.372 22.404-91.294z"
          fill="#5D9CEC" p-id="3258"></path>
    <path d="M1020.458 230.65c-6.094-16.686-20.344-30.826-42.53-42.232 8.466 23.86 0.876 54.42-22.562 90.856-15.748 24.514-33.31 43.374-34.06 44.17a21.47 21.47 0 0 1-8.282 5.454L228.33 578.092a20.896 20.896 0 0 1-7.282 1.282c-4.812 0-9.562-1.624-13.406-4.718L0.118 407.052a21.202 21.202 0 0 0 7.844 14.53l242.366 195.728a21.094 21.094 0 0 0 13.376 4.75c2.468 0 4.938-0.438 7.312-1.282L955.68 371.568c3.156-1.14 6-3.016 8.282-5.468 0.75-0.782 18.312-19.64 34.092-44.156 23.562-36.654 31.124-67.372 22.404-91.294z"
          fill="#FFFFFF" opacity=".2" p-id="3259"></path>
    <path d="M758.53 308.898L317.732 138.044a21.366 21.366 0 0 0-15-0.156l-125.37 45.64c-7.156 2.594-12.344 8.812-13.718 16.296a21.402 21.402 0 0 0 7.25 20.032l273.616 231.678a21.306 21.306 0 0 0 13.78 5.046 21.28 21.28 0 0 0 7.282-1.282l292.552-106.464c8.344-3.046 13.938-10.938 14.032-19.828s-5.346-16.904-13.626-20.108z"
          fill="#E6E9ED" p-id="3260"></path>
</svg>