<svg width="64" height="64" viewBox="0 0 64 64" fill="none" xmlns="http://www.w3.org/2000/svg">
<path d="M19.6534 28.9839C19.8027 28.8293 20.3734 28.1679 20.9014 27.6239C24.008 24.2026 32.112 18.6026 36.3547 16.8933C37 16.6186 38.6294 16.0373 39.4987 15.9999C40.3334 15.9999 41.1254 16.1919 41.8854 16.5813C42.832 17.1253 43.592 17.9813 44.0054 18.9919C44.272 19.6933 44.688 21.7919 44.688 21.8293C45.104 24.1253 45.3334 27.8559 45.3334 31.9786C45.3334 35.9066 45.104 39.4853 44.7654 41.8159C44.7254 41.8533 44.312 44.4613 43.856 45.3546C43.0214 46.9866 41.392 47.9999 39.648 47.9999H39.4987C38.3627 47.9599 35.976 46.9466 35.976 46.9093C31.9627 45.1973 24.0454 39.8719 20.8614 36.3333C20.8614 36.3333 19.9654 35.4239 19.576 34.8559C18.9768 34.032 18.658 33.0374 18.6667 32.0186C18.6667 30.8906 19.008 29.8399 19.6534 28.9839Z" fill="black"/>
</svg>
