<svg width="64" height="64" viewBox="0 0 64 64" fill="none" xmlns="http://www.w3.org/2000/svg">
<path d="M44.3466 35.0159C44.1973 35.1706 43.6266 35.8319 43.0986 36.3759C39.992 39.7973 31.888 45.3973 27.6453 47.1066C27 47.3813 25.3706 47.9626 24.5013 47.9999C23.6666 47.9999 22.8746 47.8079 22.1146 47.4186C21.168 46.8746 20.408 46.0186 19.9946 45.0079C19.728 44.3066 19.312 42.2079 19.312 42.1706C18.896 39.8746 18.6666 36.1439 18.6666 32.0213C18.6666 28.0933 18.896 24.5146 19.2346 22.1839C19.2746 22.1466 19.688 19.5386 20.144 18.6453C20.9786 17.0133 22.608 15.9999 24.352 15.9999H24.5013C25.6373 16.0399 28.024 17.0533 28.024 17.0906C32.0373 18.8026 39.9546 24.1279 43.1386 27.6666C43.1386 27.6666 44.0346 28.5759 44.424 29.1439C45.0232 29.9679 45.342 30.9625 45.3333 31.9813C45.3333 33.1093 44.992 34.1599 44.3466 35.0159Z" fill="black"/>
</svg>
