<?xml version="1.0" standalone="no"?><!DOCTYPE svg PUBLIC "-//W3C//DTD SVG 1.1//EN"
        "http://www.w3.org/Graphics/SVG/1.1/DTD/svg11.dtd">
<svg t="1710310980796" class="icon" viewBox="0 0 1024 1024" version="1.1" xmlns="http://www.w3.org/2000/svg" p-id="890"
     width="64" height="64">
    <path d="M560.256 314.453333c2.474667 2.389333 13.056 11.52 21.76 19.968 54.741333 49.706667 144.341333 179.370667 171.690667 247.253334 4.394667 10.325333 13.696 36.394667 14.293333 50.304 0 13.354667-3.072 26.026667-9.301333 38.186666a79.957333 79.957333 0 0 1-38.570667 33.92c-11.221333 4.266667-44.8 10.922667-45.397333 10.922667-36.736 6.656-96.426667 10.325333-162.389334 10.325333-62.848 0-120.106667-3.669333-157.397333-9.088-0.597333-0.64-42.325333-7.253333-56.618667-14.549333A76.16 76.16 0 0 1 256 634.368v-2.389333c0.64-18.176 16.853333-56.362667 17.450667-56.362667 27.392-64.213333 112.597333-190.890667 169.216-241.834667 0 0 14.549333-14.336 23.637333-20.565333A76.074667 76.074667 0 0 1 511.701333 298.666667c18.048 0 34.858667 5.461333 48.554667 15.786666z"
          fill="#000000" p-id="891"></path>
</svg>