<?xml version="1.0" standalone="no"?><!DOCTYPE svg PUBLIC "-//W3C//DTD SVG 1.1//EN" "http://www.w3.org/Graphics/SVG/1.1/DTD/svg11.dtd"><svg t="1710287732803" class="icon" viewBox="0 0 1024 1024" version="1.1" xmlns="http://www.w3.org/2000/svg" p-id="4265" xmlns:xlink="http://www.w3.org/1999/xlink" width="64" height="64"><path d="M785.066667 341.333333c10.24 0 17.066667-6.826667 17.066666-17.066666v-273.066667c0-10.24-6.826667-17.066667-17.066666-17.066667s-17.066667 6.826667-17.066667 17.066667v273.066667c0 10.24 6.826667 17.066667 17.066667 17.066666zM785.066667 682.666667c-10.24 0-17.066667 6.826667-17.066667 17.066666v273.066667c0 10.24 6.826667 17.066667 17.066667 17.066667s17.066667-6.826667 17.066666-17.066667v-273.066667c0-10.24-6.826667-17.066667-17.066666-17.066666zM648.533333 375.466667c-133.12 0-296.96 27.306667-406.186666 51.2-6.826667-37.546667-23.893333-85.333333-54.613334-85.333334-37.546667 0-51.2 71.68-58.026666 119.466667-20.48 10.24-44.373333 27.306667-44.373334 51.2s23.893333 40.96 44.373334 51.2c6.826667 47.786667 20.48 119.466667 58.026666 119.466667 30.72 0 47.786667-47.786667 54.613334-85.333334 109.226667 23.893333 273.066667 51.2 406.186666 51.2 194.56 0 290.133333-44.373333 290.133334-136.533333s-95.573333-136.533333-290.133334-136.533333z m143.36 204.8H785.066667c-6.826667 0-13.653333-3.413333-17.066667-10.24-3.413333-10.24 0-17.066667 10.24-20.48 3.413333 0 23.893333-10.24 23.893333-34.133334s-20.48-34.133333-23.893333-34.133333c-10.24-3.413333-13.653333-13.653333-10.24-20.48 3.413333-10.24 13.653333-13.653333 20.48-10.24 3.413333 0 44.373333 17.066667 44.373333 68.266667s-40.96 58.026667-40.96 61.44z" fill="" p-id="4266"></path><path d="M488.106667 351.573333c95.573333-10.24 170.666667-13.653333 235.52-6.826666 10.24 0 17.066667-6.826667 17.066666-17.066667v-6.826667L730.453333 238.933333c20.48-6.826667 37.546667-27.306667 37.546667-47.786666 0-30.72-23.893333-54.613333-51.2-54.613334l-6.826667-47.786666C703.146667 37.546667 662.186667 0 610.986667 0S515.413333 40.96 512 92.16l-40.96 242.346667c0 6.826667 0 10.24 3.413333 13.653333 3.413333 0 6.826667 3.413333 13.653334 3.413333zM730.453333 788.48l10.24-88.746667c0-3.413333 0-10.24-3.413333-13.653333s-10.24-6.826667-13.653333-6.826667c-64.853333 3.413333-139.946667 3.413333-235.52-6.826666-6.826667 0-10.24 0-13.653334 6.826666-3.413333 3.413333-6.826667 10.24-3.413333 13.653334l40.96 238.933333c3.413333 51.2 47.786667 92.16 102.4 92.16 51.2 0 92.16-37.546667 98.986667-88.746667L716.8 887.466667c27.306667 0 51.2-23.893333 51.2-51.2 0-23.893333-17.066667-44.373333-37.546667-47.786667z" fill="" p-id="4267"></path></svg>